<?xml version="1.0" standalone="no"?>
<!DOCTYPE svg PUBLIC "-//W3C//DTD SVG 20010904//EN"
 "http://www.w3.org/TR/2001/REC-SVG-20010904/DTD/svg10.dtd">
<svg version="1.0" xmlns="http://www.w3.org/2000/svg"
 width="260.000000pt" height="260.000000pt" viewBox="0 0 260.000000 260.000000"
 preserveAspectRatio="xMidYMid meet">
<metadata>
Created by potrace 1.11, written by Peter Selinger 2001-2013
</metadata>
<g transform="translate(0.000000,260.000000) scale(0.100000,-0.100000)"
fill="#000000" stroke="none">
<path d="M966 2270 l-321 -320 96 0 c306 0 545 -150 605 -380 61 -234 -90
-517 -339 -633 -68 -32 -184 -57 -262 -57 -65 0 -204 32 -332 77 -39 14 -76
24 -82 22 -6 -2 210 -222 480 -488 l491 -484 294 294 294 294 -67 6 c-38 4
-104 19 -148 33 -99 34 -181 53 -268 61 -37 4 -70 12 -74 18 -3 5 7 34 23 63
l29 54 65 -1 c62 -1 66 0 95 34 30 35 295 516 295 536 0 6 -10 11 -21 11 -18
0 -20 4 -15 25 3 14 9 36 12 49 l6 25 -48 -15 c-154 -46 -286 -173 -308 -295
-8 -44 4 -78 45 -129 42 -52 43 -104 3 -138 -22 -20 -35 -23 -67 -19 -118 16
-168 211 -97 379 114 268 405 404 744 348 155 -25 292 -124 314 -225 10 -49 1
-118 -22 -163 -17 -33 -96 -108 -131 -124 l-24 -11 20 -28 c10 -15 25 -41 32
-58 l13 -30 149 149 150 150 -645 645 c-355 355 -649 645 -654 645 -5 0 -154
-144 -330 -320z"/>
<path d="M528 1776 c-150 -62 -267 -206 -255 -312 3 -32 14 -55 41 -84 42 -47
48 -92 16 -133 -26 -33 -69 -42 -112 -24 -43 18 -74 66 -91 141 l-12 56 -60
-60 -60 -60 92 -92 c72 -71 95 -90 104 -81 8 8 31 10 69 6 56 -5 56 -5 86 33
51 66 145 231 263 459 40 76 41 80 21 83 -29 5 -34 25 -15 61 15 30 15 31 -7
31 -13 0 -49 -11 -80 -24z"/>
<path d="M902 1713 c-41 -61 -79 -131 -182 -328 -75 -143 -129 -238 -164 -284
-14 -19 -23 -37 -21 -41 10 -16 118 -32 191 -28 211 12 379 194 392 423 5 94
-7 144 -49 208 -27 42 -101 107 -121 107 -4 0 -25 -26 -46 -57z"/>
<path d="M2088 1408 c-84 -136 -110 -190 -98 -198 6 -4 31 -4 55 0 129 20 211
165 136 241 -16 16 -34 29 -39 29 -6 0 -30 -33 -54 -72z"/>
<path d="M1860 993 c-25 -47 -66 -118 -92 -157 -52 -80 -53 -78 40 -91 104
-14 188 31 236 127 32 63 33 106 4 143 -21 27 -95 65 -126 65 -11 0 -33 -31
-62 -87z"/>
</g>
</svg>
